<?xml version="1.0" encoding="UTF-8" standalone="no"?>
<!-- Created with Inkscape (http://www.inkscape.org/) -->

<svg
   width="305.96899mm"
   height="307.5065mm"
   viewBox="0 0 305.96899 307.5065"
   version="1.1"
   id="svg1"
   xml:space="preserve"
   sodipodi:docname="botcord-icon.svg"
   xmlns:inkscape="http://www.inkscape.org/namespaces/inkscape"
   xmlns:sodipodi="http://sodipodi.sourceforge.net/DTD/sodipodi-0.dtd"
   xmlns="http://www.w3.org/2000/svg"
   xmlns:svg="http://www.w3.org/2000/svg"><sodipodi:namedview
     id="namedview1"
     pagecolor="#ffffff"
     bordercolor="#000000"
     borderopacity="0.25"
     inkscape:showpageshadow="2"
     inkscape:pageopacity="0.0"
     inkscape:pagecheckerboard="0"
     inkscape:deskcolor="#d1d1d1"
     inkscape:document-units="mm"><inkscape:page
       x="0"
       y="0"
       width="305.96899"
       height="307.5065"
       id="page1"
       margin="0"
       bleed="0" /></sodipodi:namedview><defs
     id="defs1" /><g
     inkscape:label="Layer 1"
     inkscape:groupmode="layer"
     id="layer1"
     transform="translate(-298.46975,-86.796307)"><ellipse
       style="fill:#007f68;fill-opacity:1;stroke-width:0.466856;stroke-opacity:0;paint-order:markers stroke fill"
       id="path2"
       cx="451.45425"
       cy="240.54956"
       rx="152.98448"
       ry="153.75325"
       inkscape:export-filename="botcord-icon.svg"
       inkscape:export-xdpi="96"
       inkscape:export-ydpi="96" /><path
       id="rect3"
       style="fill:#ffffff;stroke-width:0.582449;stroke-opacity:0;paint-order:markers stroke fill"
       d="m 399.73369,268.47332 h 103.55008 v 27.81834 H 399.73369 Z m -1.73709,48.43911 c -11.58219,-5.16871 -22.47559,-12.15963 -29.97942,-19.23952 -6.46737,-6.10197 -9.36258,-10.68005 -10.83829,-17.13819 -0.46704,-2.04385 -0.4733,-2.42013 -0.55625,-33.40066 -0.0891,-33.26741 -0.0636,-34.28697 0.96019,-38.4174 1.73308,-6.99209 6.7191,-15.33931 14.03027,-23.48842 8.28254,-9.23181 19.40766,-16.4985 30.94967,-20.21567 6.19504,-1.99515 7.7325,-2.11282 9.1017,-0.69661 0.52398,0.54196 2.10139,4.02186 4.59697,10.14131 0.63448,1.55582 1.25708,2.95115 1.38358,3.10074 0.3293,0.38943 1.1394,0.34166 4.50588,-0.26574 5.90322,-1.0651 12.98185,-1.7728 22.0086,-2.20032 l 2.83993,-0.13451 8.90963,0.002 2.28308,0.12961 c 1.2557,0.0713 4.1374,0.23412 6.40378,0.36184 5.25741,0.29629 10.5519,0.88575 15.67008,1.74462 2.22334,0.37309 4.10856,0.71778 4.18938,0.76596 0.36436,0.21718 0.89291,-0.25953 1.31755,-1.18833 0.25403,-0.55563 1.36762,-3.16442 2.47462,-5.79731 2.49765,-5.94037 2.92425,-6.7667 3.69089,-7.14939 1.24835,-0.62316 1.98134,-0.6273 4.45207,-0.0252 7.29849,1.7787 15.57531,5.60669 22.33129,10.3281 3.64609,2.54809 5.903,4.4362 9.47964,7.93058 8.44834,8.25405 14.94482,18.26202 17.02533,26.22789 1.11059,4.25224 1.11619,4.43802 1.11377,36.95614 -0.002,17.18653 -0.0924,31.24594 -0.20955,32.35327 -0.40353,3.81242 -1.1928,6.53677 -2.80519,9.68294 -1.59584,3.11386 -3.50778,5.5108 -7.55984,9.47752 -7.21762,7.06563 -15.65549,12.77803 -27.20793,18.41966 -5.39182,2.6331 -6.48178,2.94501 -7.8594,2.24907 -0.77075,-0.38936 -2.71578,-3.17015 -7.12441,-10.18564 -1.26095,-2.00658 -2.45834,-3.73421 -2.66086,-3.83918 -0.23785,-0.12328 -0.84135,-0.0432 -1.70464,0.22618 -12.63628,3.94308 -29.36176,6.05418 -42.85746,5.4095 -11.90701,-0.56879 -21.35952,-2.12382 -32.20601,-5.29819 -1.14308,-0.33453 -1.91301,-0.45478 -2.14756,-0.33541 -0.20111,0.10235 -0.64306,0.65344 -0.9821,1.22464 -1.98392,3.34234 -7.16175,11.27324 -7.86631,12.04882 -0.7527,0.8286 -0.94434,0.92206 -2.04496,0.99726 -1.04038,0.071 -1.48577,-0.0382 -3.10772,-0.76194 z m 65.41912,-24.82378 c 8.77404,-1.17037 15.77957,-3.16929 22.92434,-6.5411 6.56662,-3.09896 8.68115,-4.89528 8.21308,-6.97713 -0.2002,-0.89047 -1.10189,-1.89166 -1.84778,-2.0517 -0.43272,-0.0928 -1.59341,0.21772 -3.96203,1.06009 -8.49552,3.02137 -16.03499,4.65793 -25.81796,5.60418 -3.92723,0.37987 -19.09035,0.38314 -22.94225,0.005 -10.54591,-1.0354 -17.25637,-2.54564 -27.61978,-6.21606 -1.7533,-0.62096 -2.37025,-0.5728 -3.28264,0.25627 -1.20596,1.09582 -1.00487,2.93312 0.46281,4.22846 1.99778,1.76318 8.08957,4.83427 13.28861,6.69928 6.1478,2.20534 12.89642,3.64057 20.38074,4.33435 1.16381,0.10788 5.42372,0.16328 9.46645,0.12309 5.88825,-0.0585 8.024,-0.16289 10.73641,-0.5247 z M 419.90561,260.3129 c 4.3864,-1.38355 8.41804,-5.22835 10.18623,-9.71418 2.70053,-6.85114 1.14725,-14.60839 -3.91545,-19.55414 -3.10828,-3.03648 -6.68828,-4.47577 -11.12012,-4.47067 -2.29607,0.002 -3.56502,0.24064 -5.65888,1.06139 -4.70071,1.84258 -8.54016,6.32989 -9.98112,11.66534 -0.62978,2.33186 -0.57295,7.03581 0.11301,9.35658 0.91184,3.08487 2.30667,5.38108 4.7036,7.74315 1.7542,1.72869 2.44055,2.24062 4.00977,2.99079 2.84274,1.35897 3.86689,1.56833 7.23905,1.4798 2.22119,-0.0583 3.25158,-0.18828 4.42391,-0.55806 z m 72.75558,0.006 c 3.51794,-1.17845 7.2258,-4.21408 9.06428,-7.4209 5.11078,-8.91464 1.86009,-20.47401 -6.94825,-24.70775 -2.61765,-1.25818 -4.15617,-1.61889 -6.90494,-1.61889 -2.58369,0 -4.2247,0.3531 -6.45947,1.38989 -4.31374,2.00132 -7.59174,5.87307 -9.0478,10.68664 -0.67059,2.21689 -0.8265,6.66436 -0.31376,8.95027 1.4632,6.52324 5.91213,11.32994 11.9621,12.92406 2.27676,0.5999 6.54997,0.49944 8.64784,-0.20332 z m -142.99921,12.24527 c -4.77447,-0.4105 -7.94706,-2.47577 -9.9838,-6.4992 -1.89134,-3.7362 -2.04131,-5.28614 -2.04287,-21.11232 -7.8e-4,-7.79065 0.0936,-14.0411 0.22833,-15.12287 0.93338,-7.4939 4.51295,-12.22111 10.12777,-13.37485 1.6287,-0.33466 4.08641,-0.4186 5.51283,-0.18827 l 0.83528,0.13487 v 28.04131 28.04115 h -0.52418 c -0.28829,0 -1.11522,0.0374 -1.8376,0.0832 -0.72239,0.0457 -1.76449,0.0444 -2.31576,-0.003 z m 199.96502,-0.0108 -1.05801,-0.0932 v -28.03049 -28.03067 l 0.69606,-0.136 c 1.21212,-0.23682 4.03641,-0.14012 5.64814,0.1934 2.37228,0.4909 3.80093,1.27726 5.69513,3.13477 2.52772,2.47875 3.87144,5.51466 4.43542,10.02103 0.13657,1.09121 0.23022,7.353 0.22945,15.34046 -0.002,14.55444 -0.0943,16.05568 -1.18607,19.16671 -0.68506,1.95212 -0.98135,2.50367 -2.24756,4.18384 -1.29734,1.72148 -3.69503,3.31382 -5.73212,3.80676 -1.53038,0.37033 -4.78404,0.59297 -6.48044,0.44344 z" /></g></svg>
