<?xml version="1.0" encoding="UTF-8" standalone="no"?>
<!-- Created with Inkscape (http://www.inkscape.org/) -->

<svg
   width="270.40106mm"
   height="187.73158mm"
   viewBox="0 0 270.40106 187.73158"
   version="1.1"
   id="svg1"
   xml:space="preserve"
   xmlns:inkscape="http://www.inkscape.org/namespaces/inkscape"
   xmlns:sodipodi="http://sodipodi.sourceforge.net/DTD/sodipodi-0.dtd"
   xmlns="http://www.w3.org/2000/svg"
   xmlns:svg="http://www.w3.org/2000/svg"><sodipodi:namedview
     id="namedview1"
     pagecolor="#ffffff"
     bordercolor="#000000"
     borderopacity="0.25"
     inkscape:showpageshadow="2"
     inkscape:pageopacity="0.0"
     inkscape:pagecheckerboard="0"
     inkscape:deskcolor="#d1d1d1"
     inkscape:document-units="mm"><inkscape:page
       x="0"
       y="0"
       width="270.40106"
       height="187.73158"
       id="page2"
       margin="0"
       bleed="0" /></sodipodi:namedview><defs
     id="defs1" /><g
     inkscape:label="Layer 1"
     inkscape:groupmode="layer"
     id="layer1"
     transform="translate(16.012719,-69.431351)"><path
       style="fill:#000000"
       d="m 55.687807,256.14997 c -13.75798,-6.2849 -26.69777,-14.78551 -35.61124,-23.39429 -7.6823,-7.41969 -11.1213909,-12.98641 -12.8743309,-20.83918 -0.55477,-2.48522 -0.56221,-2.94276 -0.66074,-40.61354 -0.1058,-40.45128 -0.0755,-41.69101 1.14057,-46.71338 2.05864,-8.50197 7.9813209,-18.65172 16.6659409,-28.560578 9.83846,-11.225354 23.05351,-20.061267 36.76376,-24.581164 7.35881,-2.425999 9.1851,-2.569083 10.81152,-0.847043 0.62241,0.659 2.49614,4.890383 5.46054,12.331331 0.75366,1.891771 1.49323,3.588412 1.64349,3.770313 0.39116,0.473535 1.35344,0.415441 5.35234,-0.323129 7.01217,-1.295099 15.42057,-2.155608 26.143053,-2.675457 l 3.37343,-0.163552 10.58334,0.0023 2.71198,0.157598 c 1.49158,0.08668 4.91463,0.284667 7.60677,0.439974 6.24504,0.360272 12.53413,1.077022 18.61379,2.121362 2.64101,0.453662 4.88038,0.872772 4.97639,0.931356 0.4328,0.264086 1.06064,-0.315567 1.56506,-1.444928 0.30175,-0.675619 1.62453,-3.847774 2.93949,-7.049232 2.96685,-7.223186 3.47359,-8.227967 4.38425,-8.6933 1.48286,-0.757723 2.35354,-0.76276 5.28841,-0.03059 8.66956,2.162818 18.50123,6.817456 26.52636,12.558459 4.33103,3.098326 7.01192,5.394168 11.26045,9.643135 10.03542,10.036455 17.7523,22.205575 20.22365,31.891615 1.31922,5.17048 1.32587,5.39638 1.32299,44.93656 -0.002,20.89796 -0.10969,37.9935 -0.24891,39.33996 -0.47934,4.6357 -1.41687,7.94838 -3.33216,11.77396 -1.89563,3.7863 -4.16674,6.70086 -8.98,11.52419 -8.5735,8.59145 -18.59648,15.53745 -32.31911,22.39739 -6.40471,3.20172 -7.69942,3.58098 -9.33584,2.73475 -0.91554,-0.47344 -3.22596,-3.85474 -8.46277,-12.38522 -1.49783,-2.43991 -2.92016,-4.54062 -3.16072,-4.66825 -0.28253,-0.14991 -0.9994,-0.0525 -2.02487,0.27502 -15.01008,4.79459 -34.87755,7.36158 -50.90849,6.57768 -14.143813,-0.69162 -25.372043,-2.58246 -38.256103,-6.44233 -1.35782,-0.40678 -2.27238,-0.55299 -2.551,-0.40784 -0.23889,0.12445 -0.76386,0.79454 -1.16659,1.48909 -2.35662,4.06412 -8.50714,13.7077 -9.34405,14.65077 -0.8941,1.00753 -1.12175,1.12117 -2.42912,1.21261 -1.23583,0.0864 -1.76488,-0.0464 -3.69153,-0.92648 z m 77.708513,-30.18448 c 10.42229,-1.42311 18.74386,-3.85369 27.23082,-7.95364 7.8002,-3.76819 10.31195,-5.95242 9.75595,-8.48385 -0.23781,-1.08276 -1.30888,-2.30016 -2.19489,-2.49476 -0.51401,-0.1129 -1.89274,0.26473 -4.70633,1.28902 -10.09145,3.67383 -19.04726,5.6638 -30.66802,6.8144 -4.66498,0.4619 -22.67658,0.46588 -27.25208,0.006 -12.527033,-1.25899 -20.498093,-3.09537 -32.808333,-7.55841 -2.08267,-0.75506 -2.81551,-0.6965 -3.89931,0.31161 -1.43251,1.33246 -1.19364,3.56653 0.54976,5.14159 2.37308,2.14394 9.60924,5.87823 15.78496,8.14599 7.3027,2.68159 15.319093,4.42675 24.209383,5.27035 1.38244,0.13118 6.4426,0.19854 11.24479,0.14968 6.99438,-0.0711 9.53134,-0.19807 12.7533,-0.63801 z M 81.712577,187.32778 c 5.21041,-1.68233 9.99941,-6.35742 12.09977,-11.81196 3.20784,-8.33063 1.36277,-17.76301 -4.65099,-23.77676 -3.69219,-3.69219 -7.94471,-5.44228 -13.2091,-5.43608 -2.7274,0.003 -4.23474,0.29261 -6.72194,1.29059 -5.58378,2.24047 -10.14449,7.69679 -11.85615,14.18439 -0.74808,2.83541 -0.68058,8.55515 0.13425,11.37709 1.08313,3.75105 2.73999,6.54312 5.58719,9.41528 2.08374,2.10201 2.89903,2.72449 4.76303,3.63665 3.37678,1.65244 4.59333,1.90701 8.59896,1.79937 2.63846,-0.0709 3.86241,-0.22894 5.25498,-0.67857 z m 86.423153,0.007 c 4.1788,-1.43294 8.58321,-5.12411 10.76706,-9.02345 6.07087,-10.83974 2.20952,-24.89527 -8.25352,-30.04326 -3.10939,-1.52988 -4.93694,-1.96848 -8.20208,-1.96848 -3.06905,0 -5.01833,0.42934 -7.67292,1.69003 -5.1241,2.43348 -9.0179,7.14131 -10.74749,12.99434 -0.79656,2.69561 -0.98176,8.10348 -0.3727,10.88304 1.73807,7.93193 7.02276,13.77664 14.20926,15.715 2.70446,0.72945 7.78042,0.6073 10.27239,-0.24722 z M -1.7267739,202.22441 c -5.67137,-0.49914 -9.4399491,-3.01041 -11.8592991,-7.9027 -2.24664,-4.54303 -2.42478,-6.42768 -2.42664,-25.67152 -9.2e-4,-9.47298 0.11119,-17.07318 0.27123,-18.38854 1.10872,-9.11216 5.36073,-14.86018 12.0303291,-16.26306 1.93466,-0.40693 4.85405,-0.509 6.54844,-0.22893 l 0.99219,0.164 v 34.09663 34.09663 h -0.62265 c -0.34245,0 -1.32472,0.0455 -2.18281,0.10114 -0.85808997,0.0556 -2.09595,0.054 -2.75079,-0.004 z m 237.5296939,-0.0131 -1.25677,-0.11339 v -34.08368 -34.08368 l 0.82682,-0.16537 c 1.43983,-0.28796 4.79468,-0.17038 6.70918,0.23516 2.81793,0.5969 4.51496,1.55308 6.76499,3.8117 3.00257,3.01402 4.59872,6.70551 5.26865,12.185 0.16222,1.32685 0.27347,8.94084 0.27255,18.65313 -0.002,17.69747 -0.11204,19.5229 -1.40888,23.30575 -0.81375,2.37368 -1.1657,3.04434 -2.66978,5.08735 -1.54105,2.09323 -4.38916,4.02943 -6.80893,4.62883 -1.81787,0.4503 -5.68275,0.72102 -7.69783,0.5392 z"
       id="path1"
       sodipodi:nodetypes="cssscsssssssccssssssssssscssssssscssscssccsssssscssssscssssscsssssssssssssssscsscsscccssccscccsssscssss"
       inkscape:export-filename="botcord-black.png"
       inkscape:export-xdpi="96"
       inkscape:export-ydpi="96" /></g></svg>
