<?xml version="1.0" encoding="UTF-8" standalone="no"?>
<!-- Created with Inkscape (http://www.inkscape.org/) -->

<svg
   width="270.40109mm"
   height="187.73207mm"
   viewBox="0 0 270.40109 187.73207"
   version="1.1"
   id="svg1"
   xml:space="preserve"
   inkscape:export-filename="botcord-icon.png"
   inkscape:export-xdpi="96"
   inkscape:export-ydpi="96"
   xmlns:inkscape="http://www.inkscape.org/namespaces/inkscape"
   xmlns:sodipodi="http://sodipodi.sourceforge.net/DTD/sodipodi-0.dtd"
   xmlns="http://www.w3.org/2000/svg"
   xmlns:svg="http://www.w3.org/2000/svg"><sodipodi:namedview
     id="namedview1"
     pagecolor="#ffffff"
     bordercolor="#000000"
     borderopacity="0.25"
     inkscape:showpageshadow="2"
     inkscape:pageopacity="0.0"
     inkscape:pagecheckerboard="0"
     inkscape:deskcolor="#d1d1d1"
     inkscape:document-units="mm"><inkscape:page
       x="0"
       y="0"
       width="270.40109"
       height="187.73207"
       id="page2"
       margin="0"
       bleed="0" /></sodipodi:namedview><defs
     id="defs1" /><g
     inkscape:label="Layer 1"
     inkscape:groupmode="layer"
     id="layer1"
     transform="translate(-277.28116,-101.96453)"><path
       id="rect3-9"
       style="fill:#000000;fill-opacity:1;stroke-width:0.7;stroke-opacity:0;paint-order:markers stroke fill"
       d="m 351.04512,229.7844 h 123.00259 v 33.8257 H 351.04512 Z m -2.06342,58.89954 c -13.75798,-6.2849 -26.69777,-14.78551 -35.61124,-23.39429 -7.6823,-7.4197 -11.12139,-12.98642 -12.87433,-20.83918 -0.55477,-2.48523 -0.56221,-2.94277 -0.66074,-40.61354 -0.1058,-40.4515 -0.0755,-41.69124 1.14057,-46.71364 2.05864,-8.50202 7.98132,-18.65182 16.66594,-28.56073 9.83846,-11.22541 23.05351,-20.06134 36.76376,-24.58124 7.35881,-2.426 9.18509,-2.56909 10.81151,-0.84705 0.62241,0.659 2.49614,4.89039 5.46054,12.33134 0.75366,1.89179 1.49323,3.58844 1.64349,3.77034 0.39116,0.47353 1.35344,0.41544 5.35234,-0.32313 7.01217,-1.29511 15.42057,-2.15563 26.14306,-2.67548 l 3.37343,-0.16355 10.58334,0.002 2.71198,0.1576 c 1.49158,0.0867 4.91463,0.28467 7.60677,0.43998 6.24504,0.36027 12.53413,1.07702 18.61379,2.12137 2.64101,0.45366 4.88038,0.87278 4.97639,0.93136 0.4328,0.26409 1.06064,-0.31557 1.56506,-1.44494 0.30175,-0.67562 1.62453,-3.84779 2.93949,-7.04925 2.96685,-7.22319 3.47359,-8.22797 4.38425,-8.6933 1.48286,-0.75772 2.35354,-0.76276 5.28841,-0.0306 8.66956,2.16282 18.50123,6.81746 26.52636,12.55846 4.33103,3.09835 7.01192,5.3942 11.26045,9.64319 10.03542,10.03651 17.7523,22.2057 20.22365,31.8918 1.31922,5.1705 1.32587,5.39641 1.32299,44.9368 -0.002,20.89797 -0.10969,37.9935 -0.24891,39.33997 -0.47934,4.63569 -1.41687,7.94837 -3.33216,11.77396 -1.89563,3.78629 -4.16674,6.70085 -8.98,11.52418 -8.5735,8.59145 -18.59648,15.53746 -32.31911,22.3974 -6.40471,3.20171 -7.69942,3.58098 -9.33584,2.73474 -0.91554,-0.47344 -3.22596,-3.85474 -8.46277,-12.38522 -1.49783,-2.43991 -2.92016,-4.54062 -3.16072,-4.66825 -0.28253,-0.14991 -0.9994,-0.0525 -2.02487,0.27503 -15.01008,4.79458 -34.87755,7.36158 -50.90849,6.57767 -14.14382,-0.69162 -25.37205,-2.58246 -38.25611,-6.44233 -1.35782,-0.40678 -2.27238,-0.55298 -2.551,-0.40783 -0.23889,0.12444 -0.76386,0.79453 -1.16659,1.48908 -2.35661,4.06412 -8.50713,13.7077 -9.34404,14.65077 -0.8941,1.00753 -1.12175,1.12118 -2.42912,1.21261 -1.23583,0.0864 -1.76488,-0.0464 -3.69153,-0.92647 z m 77.70851,-30.18448 c 10.42229,-1.42312 18.74386,-3.8537 27.23082,-7.95365 7.8002,-3.76819 10.31195,-5.95242 9.75595,-8.48385 -0.23781,-1.08276 -1.30888,-2.30016 -2.19489,-2.49476 -0.51401,-0.1129 -1.89274,0.26473 -4.70633,1.28902 -10.09145,3.67383 -19.04726,5.6638 -30.66802,6.8144 -4.66498,0.4619 -22.67658,0.46588 -27.25208,0.006 -12.52704,-1.25899 -20.4981,-3.09537 -32.80834,-7.55841 -2.08267,-0.75505 -2.81551,-0.69649 -3.8993,0.31161 -1.43251,1.33246 -1.19364,3.56653 0.54975,5.14159 2.37308,2.14394 9.60924,5.87823 15.78496,8.14599 7.3027,2.6816 15.3191,4.42676 24.20939,5.27035 1.38244,0.13119 6.44259,0.19855 11.24478,0.14968 6.99439,-0.0711 9.53135,-0.19806 12.75331,-0.63801 z m -51.68375,-38.63772 c 5.21041,-1.68232 9.99941,-6.35742 12.09977,-11.81196 3.20784,-8.33063 1.36277,-17.76306 -4.65099,-23.77686 -3.69219,-3.69221 -7.94471,-5.4423 -13.2091,-5.43611 -2.7274,0.003 -4.23474,0.29261 -6.72194,1.2906 -5.58377,2.24048 -10.14448,7.69684 -11.85614,14.18448 -0.74808,2.83542 -0.68058,8.55518 0.13425,11.37712 1.08313,3.75105 2.73999,6.54312 5.58719,9.41528 2.08374,2.10201 2.89903,2.72449 4.76303,3.63666 3.37677,1.65244 4.59332,1.90701 8.59895,1.79937 2.63846,-0.0709 3.86241,-0.22895 5.25498,-0.67858 z m 86.42316,0.007 c 4.1788,-1.43293 8.58321,-5.1241 10.76706,-9.02344 6.07087,-10.83976 2.20952,-24.89537 -8.25352,-30.04338 -3.10939,-1.52988 -4.93694,-1.96849 -8.20208,-1.96849 -3.06905,0 -5.01833,0.42935 -7.67292,1.69004 -5.1241,2.4335 -9.0179,7.14135 -10.74749,12.99442 -0.79656,2.69561 -0.98176,8.10352 -0.3727,10.88308 1.73807,7.93193 7.02276,13.77664 14.20926,15.715 2.70446,0.72945 7.78042,0.6073 10.27239,-0.24723 z m -169.8625,14.88963 c -5.67138,-0.49914 -9.43996,-3.0104 -11.85931,-7.90269 -2.24664,-4.54303 -2.42478,-6.42768 -2.42664,-25.67153 -9.2e-4,-9.47303 0.11119,-17.07328 0.27123,-18.38865 1.10872,-9.11221 5.36073,-14.86025 12.03033,-16.26315 1.93466,-0.40692 4.85406,-0.50899 6.54845,-0.22893 l 0.99219,0.164 v 34.09683 34.09664 h -0.62265 c -0.34245,0 -1.32472,0.0455 -2.18281,0.10113 -0.85809,0.0556 -2.09595,0.054 -2.75079,-0.004 z m 237.52969,-0.0131 -1.25677,-0.11338 V 200.5482 166.46433 l 0.82682,-0.16537 c 1.43983,-0.28796 4.79468,-0.17038 6.70918,0.23516 2.81793,0.59691 4.51496,1.55309 6.76499,3.81172 3.00257,3.01403 4.59872,6.70554 5.26865,12.18507 0.16222,1.32686 0.27347,8.94088 0.27255,18.65323 -0.002,17.69748 -0.11204,19.5229 -1.40888,23.30575 -0.81375,2.37369 -1.1657,3.04435 -2.66978,5.08735 -1.54105,2.09324 -4.38916,4.02943 -6.80893,4.62883 -1.81787,0.4503 -5.68275,0.72103 -7.69783,0.5392 z"
       inkscape:export-filename="botcord-black.png"
       inkscape:export-xdpi="96"
       inkscape:export-ydpi="96" /></g></svg>
