<?xml version="1.0" encoding="UTF-8" standalone="no"?>
<!-- Created with Inkscape (http://www.inkscape.org/) -->

<svg
   width="210mm"
   height="297mm"
   viewBox="0 0 210 297"
   version="1.1"
   id="svg1"
   xml:space="preserve"
   xmlns:inkscape="http://www.inkscape.org/namespaces/inkscape"
   xmlns:sodipodi="http://sodipodi.sourceforge.net/DTD/sodipodi-0.dtd"
   xmlns="http://www.w3.org/2000/svg"
   xmlns:svg="http://www.w3.org/2000/svg"><sodipodi:namedview
     id="namedview1"
     pagecolor="#ffffff"
     bordercolor="#000000"
     borderopacity="0.25"
     inkscape:showpageshadow="2"
     inkscape:pageopacity="0.0"
     inkscape:pagecheckerboard="0"
     inkscape:deskcolor="#d1d1d1"
     inkscape:document-units="mm"><inkscape:page
       x="0"
       y="0"
       width="210"
       height="297"
       id="page2"
       margin="0"
       bleed="0" /></sodipodi:namedview><defs
     id="defs1" /><g
     inkscape:label="Layer 1"
     inkscape:groupmode="layer"
     id="layer1"><ellipse
       style="fill:#007f68;fill-opacity:1;stroke-width:0.466856;stroke-opacity:0;paint-order:markers stroke fill"
       id="path2"
       cx="105"
       cy="148.5"
       rx="152.98448"
       ry="153.75325" /><path
       id="rect3"
       style="fill:#ffffff;stroke-width:0.7;stroke-opacity:0;paint-order:markers stroke fill"
       d="M 43.563419,182.45383 H 166.56601 v 33.82571 H 43.563419 Z m -2.063426,58.89954 c -13.75798,-6.2849 -26.69777,-14.78551 -35.6112395,-23.39429 -7.6823,-7.41969 -11.12139,-12.98641 -12.87433,-20.83918 -0.55477,-2.48522 -0.56221,-2.94276 -0.66074,-40.61354 -0.1058,-40.45149 -0.0755,-41.69123 1.14057,-46.71363 2.05864,-8.50202 7.98132,-18.651829 16.6659395,-28.560739 9.83846,-11.22541 23.05351,-20.06134 36.76376,-24.58124 7.35881,-2.426 9.185098,-2.569084 10.811518,-0.847043 0.62241,0.659 2.49614,4.890385 5.46054,12.331333 0.75366,1.89179 1.49323,3.58844 1.64349,3.77034 0.39116,0.47353 1.35344,0.41544 5.35234,-0.32313 7.01217,-1.29511 15.42057,-2.15563 26.14305,-2.67548 l 3.37343,-0.16355 10.583349,0.002 2.71198,0.1576 c 1.49158,0.0867 4.91463,0.28467 7.60677,0.43998 6.24504,0.36027 12.53413,1.07702 18.61379,2.12137 2.64101,0.45366 4.88038,0.87278 4.97639,0.93136 0.4328,0.26409 1.06064,-0.31557 1.56506,-1.44494 0.30175,-0.67562 1.62453,-3.847784 2.93949,-7.049243 2.96685,-7.22319 3.47359,-8.227971 4.38425,-8.693305 1.48286,-0.757723 2.35354,-0.76276 5.28841,-0.03059 8.66956,2.16282 18.50123,6.81746 26.52636,12.558461 4.33103,3.098347 7.01192,5.394197 11.26045,9.643187 10.03542,10.03651 17.7523,22.2057 20.22365,31.891799 1.31922,5.17051 1.32587,5.39641 1.32299,44.93681 -0.002,20.89796 -0.10969,37.9935 -0.24891,39.33996 -0.47934,4.6357 -1.41687,7.94838 -3.33216,11.77396 -1.89563,3.7863 -4.16674,6.70086 -8.98,11.52419 -8.5735,8.59145 -18.59648,15.53745 -32.31911,22.39739 -6.40471,3.20172 -7.69942,3.58098 -9.33584,2.73475 -0.91554,-0.47344 -3.22596,-3.85474 -8.46277,-12.38522 -1.49783,-2.43991 -2.92016,-4.54062 -3.16072,-4.66825 -0.28253,-0.14991 -0.9994,-0.0525 -2.02487,0.27502 -15.01008,4.79459 -34.87755,7.36158 -50.908499,6.57768 -14.14381,-0.69162 -25.37204,-2.58246 -38.2561,-6.44233 -1.35782,-0.40678 -2.27238,-0.55299 -2.551,-0.40784 -0.23889,0.12445 -0.76386,0.79454 -1.16659,1.48909 -2.356618,4.06412 -8.507138,13.7077 -9.344048,14.65077 -0.8941,1.00753 -1.12175,1.12117 -2.42912,1.21261 -1.23583,0.0864 -1.76488,-0.0464 -3.69153,-0.92648 z m 77.708517,-30.18448 c 10.42229,-1.42311 18.74386,-3.85369 27.23082,-7.95364 7.8002,-3.76819 10.31195,-5.95242 9.75595,-8.48385 -0.23781,-1.08276 -1.30888,-2.30016 -2.19489,-2.49476 -0.51401,-0.1129 -1.89274,0.26473 -4.70633,1.28902 -10.09145,3.67383 -19.04726,5.6638 -30.66802,6.8144 -4.66498,0.4619 -22.676589,0.46588 -27.252089,0.006 -12.52703,-1.25899 -20.49809,-3.09537 -32.80833,-7.55841 -2.08267,-0.75506 -2.81551,-0.6965 -3.899308,0.31161 -1.43251,1.33246 -1.19364,3.56653 0.549758,5.14159 2.37308,2.14394 9.60924,5.87823 15.78496,8.14599 7.3027,2.68159 15.31909,4.42675 24.20938,5.27035 1.38244,0.13118 6.442599,0.19854 11.244789,0.14968 6.99439,-0.0711 9.53135,-0.19807 12.75331,-0.63801 z M 67.524761,172.53118 c 5.21041,-1.68233 9.99941,-6.35742 12.09977,-11.81196 3.20784,-8.33064 1.36277,-17.76307 -4.65099,-23.77686 -3.69219,-3.69221 -7.94471,-5.44231 -13.2091,-5.43611 -2.7274,0.003 -4.23474,0.29261 -6.72194,1.2906 -5.583778,2.24048 -10.144488,7.69683 -11.856148,14.18447 -0.74808,2.83542 -0.68058,8.55519 0.13425,11.37713 1.08313,3.75105 2.73999,6.54312 5.58719,9.41528 2.08374,2.10201 2.89903,2.72449 4.76303,3.63665 3.376778,1.65244 4.593328,1.90701 8.598958,1.79937 2.63846,-0.0709 3.86241,-0.22894 5.25498,-0.67857 z m 86.423159,0.007 c 4.1788,-1.43294 8.58321,-5.12411 10.76706,-9.02345 6.07087,-10.83975 2.20952,-24.89536 -8.25352,-30.04338 -3.10939,-1.52988 -4.93694,-1.96849 -8.20208,-1.96849 -3.06905,0 -5.01833,0.42935 -7.67292,1.69004 -5.1241,2.4335 -9.0179,7.14135 -10.74749,12.99442 -0.79656,2.69562 -0.98176,8.10352 -0.3727,10.88308 1.73807,7.93193 7.02276,13.77664 14.20926,15.715 2.70446,0.72945 7.78042,0.6073 10.27239,-0.24722 z m -169.862507,14.88963 c -5.671373,-0.49914 -9.439952,-3.01041 -11.859302,-7.9027 -2.24664,-4.54303 -2.42478,-6.42768 -2.42664,-25.67152 -9.2e-4,-9.47304 0.11119,-17.07328 0.27123,-18.38865 1.10872,-9.11221 5.36073,-14.86026 12.030329,-16.26315 1.93466,-0.40693 4.854053,-0.509 6.548443,-0.22893 l 0.99219,0.164 v 34.09683 34.09663 h -0.62265 c -0.34245,0 -1.32472,0.0455 -2.18281,0.10114 -0.85809,0.0556 -2.09595,0.054 -2.75079,-0.004 z m 237.529697,-0.0131 -1.25677,-0.11339 v -34.08368 -34.08388 l 0.82682,-0.16537 c 1.43983,-0.28796 4.79468,-0.17038 6.70918,0.23516 2.81793,0.59691 4.51496,1.55309 6.76499,3.81172 3.00257,3.01404 4.59872,6.70555 5.26865,12.18507 0.16222,1.32686 0.27347,8.94089 0.27255,18.65324 -0.002,17.69747 -0.11204,19.5229 -1.40888,23.30575 -0.81375,2.37368 -1.1657,3.04434 -2.66978,5.08735 -1.54105,2.09323 -4.38916,4.02943 -6.80893,4.62883 -1.81787,0.4503 -5.68275,0.72102 -7.69783,0.5392 z" /></g></svg>
